<?xml version="1.0" encoding="UTF-8" standalone="no"?>
<!DOCTYPE svg PUBLIC "-//W3C//DTD SVG 1.1//EN" "http://www.w3.org/Graphics/SVG/1.1/DTD/svg11.dtd">
<svg version="1.1" xmlns="http://www.w3.org/2000/svg" xmlns:xlink="http://www.w3.org/1999/xlink" preserveAspectRatio="xMidYMid meet" viewBox="0 0 640 640" width="640" height="640"><defs><path d="M410.99 0C416.51 0 420.99 4.48 420.99 10C420.99 21.86 420.99 47.45 420.99 59.31C420.99 64.83 416.51 69.31 410.99 69.31C372.59 69.31 267.41 69.31 229.01 69.31C223.49 69.31 219.01 64.83 219.01 59.31C219.01 47.45 219.01 21.86 219.01 10C219.01 4.48 223.49 0 229.01 0C267.41 0 372.59 0 410.99 0Z" id="erkVrxrQ"></path><path d="M594.36 374.95C594.36 521.24 471.42 640 320 640C168.58 640 45.64 521.24 45.64 374.95C45.64 228.67 168.58 109.9 320 109.9C471.42 109.9 594.36 228.67 594.36 374.95Z" id="d1aSyICZuT"></path><path d="M291.78 69.31L348.22 69.31L348.22 142.57L291.78 142.57L291.78 69.31Z" id="azxrkhDdA"></path><path d="M574.24 161.38C578.54 165.58 578.61 172.47 574.41 176.76C566.23 185.11 549.31 202.39 541.14 210.74C536.93 215.03 530.05 215.1 525.76 210.9C518.54 203.83 504.66 190.24 497.44 183.17C493.15 178.97 493.07 172.08 497.28 167.79C505.45 159.44 522.37 142.16 530.55 133.82C534.75 129.52 541.64 129.45 545.93 133.65C553.15 140.72 567.03 154.31 574.24 161.38Z" id="be2HmtcnP"></path></defs><g><g><g><use xlink:href="#erkVrxrQ" opacity="1" fill="#81a4bb" fill-opacity="1"></use><g><use xlink:href="#erkVrxrQ" opacity="1" fill-opacity="0" stroke="#81a4bb" stroke-width="0" stroke-opacity="1"></use></g></g><g><use xlink:href="#d1aSyICZuT" opacity="1" fill="#81a4bb" fill-opacity="1"></use><g><use xlink:href="#d1aSyICZuT" opacity="1" fill-opacity="0" stroke="#27acd4" stroke-width="0" stroke-opacity="1"></use></g></g><g><use xlink:href="#azxrkhDdA" opacity="1" fill="#81a4bb" fill-opacity="1"></use></g><g><use xlink:href="#be2HmtcnP" opacity="1" fill="#81a4bb" fill-opacity="1"></use></g></g></g></svg>